PathFileType	4	(X/Y/Z)	D:\Share\Shared_Data\Ergonomics\Sit To Stand Pertubation\S3\S3 Cal 01.trc
DataRate	CameraRate	NumFrames	NumMarkers	Units	OrigDataRate	OrigDataStartFrame	OrigNumFrames	
100	100	16	21	mm	100	179	204
Frame#	Time	R_ASIS			R_Pelvis			V_Sacral			L_Pelvis			L_ASIS			Clavical			R_Acromium			L_Acromium			Sternum			Torso			R_Thigh_Med			R_Thigh_Lat			R_Thigh			R_Shank_Med			R_Shank_Lat			R_Shank			R_Heel			R_Toe			RAJC			RHJC			RKJC			
		X1	Y1	Z1	X2	Y2	Z2	X3	Y3	Z3	X4	Y4	Z4	X5	Y5	Z5	X6	Y6	Z6	X7	Y7	Z7	X8	Y8	Z8	X9	Y9	Z9	X10	Y10	Z10	X11	Y11	Z11	X12	Y12	Z12	X13	Y13	Z13	X14	Y14	Z14	X15	Y15	Z15	X16	Y16	Z16	X17	Y17	Z17	X18	Y18	Z18	X19	Y19	Z19	X20	Y20	Z20	X21	Y21	Z21	

179	1.78	306.00671	940.47302	126.65866	195.67073	954.75275	177.90105	93.12603	991.81653	-15.083916	204.91216	963.65417	-209.06097	306.53537	931.06836	-157.22797	274.40765	1375.1855	-12.238849	191.10701	1425.4149	151.74225	217.12253	1428.0071	-167.24081	306.47519	1301.932	-7.1642113	280.73575	1361.4795	-79.450684	256.42874	468.2789	31.398676	224.01562	457.22662	130.59392	312.64182	661.52344	89.288277	181.08336	104.9509	73.128288	166.84457	98.580864	155.96162	164.21335	284.92163	157.74257	110.25224	56.330811	114.79167	327.92722	56.084629	103.77711	173.963965	101.765882	114.544954	220.9242965	862.1548254	88.08491811	240.22218	462.75276	80.996298
180	1.79	305.94946	940.46796	126.67673	195.57272	954.72992	177.95012	93.097862	991.8313	-15.091599	204.89914	963.64502	-209.05351	306.53015	931.05182	-157.20316	274.37585	1375.1558	-12.210591	191.07961	1425.4023	151.78284	217.12859	1427.9916	-167.20506	306.42041	1301.8961	-7.1359572	280.66431	1361.4614	-79.38591	256.40631	468.27637	31.404034	223.99379	457.2399	130.59543	312.6048	661.51416	89.313965	181.04817	104.97466	73.188606	166.74818	98.508041	155.90886	164.1935	284.92117	157.73787	110.25446	56.313087	114.80172	327.91675	56.067833	103.77573	173.898175	101.7413505	114.548733	220.8650056	862.1599383	88.09127062	240.20005	462.758135	80.999732
181	1.8	305.9881	940.46021	126.70676	195.5311	954.72968	177.92912	93.063972	991.74207	-15.074421	204.88228	963.64429	-209.06256	306.49454	931.0556	-157.16013	274.31842	1375.123	-12.183755	191.06226	1425.4012	151.81111	217.10167	1427.9869	-167.18202	306.36877	1301.8739	-7.1335654	280.58249	1361.4164	-79.348526	256.47821	468.3168	31.400118	223.95901	457.21841	130.57327	312.60016	661.51007	89.323936	181.0789	104.91409	73.084641	166.75803	98.470634	155.90494	164.19147	284.91867	157.74068	110.24986	56.301193	114.77953	327.91473	56.072029	103.76025	173.918465	101.692362	114.4947905	220.9235477	862.1233243	88.14385067	240.21861	462.767605	80.986694
182	1.81	305.93933	940.44287	126.72296	195.50764	954.73633	177.94298	93.014465	991.73749	-15.073628	204.88202	963.65405	-209.02196	306.46497	931.05914	-157.13977	274.27246	1375.0844	-12.158926	191.04404	1425.3997	151.87022	217.04504	1427.9645	-167.17052	306.32819	1301.8457	-7.0839396	280.50726	1361.3866	-79.308914	256.49133	468.33044	31.421106	223.95811	457.2294	130.5737	312.586	661.51044	89.336952	181.07411	104.88422	73.02581	166.75594	98.498398	155.9113	164.19672	284.92267	157.74652	110.25022	56.321026	114.82755	327.91769	56.08646	103.7753	173.915025	101.691309	114.468555	220.8753477	862.1108112	88.14932489	240.22472	462.77992	80.997403
183	1.82	305.89105	940.43805	126.75239	195.4474	954.72168	177.98969	92.974876	991.71838	-15.016123	204.84259	963.65588	-209.02466	306.44958	931.0556	-157.10588	274.1796	1375.0372	-12.13161	191.00664	1425.3992	151.89612	216.99432	1427.9482	-167.13785	306.26489	1301.8011	-7.0344744	280.42575	1361.343	-79.279289	256.40024	468.25485	31.399641	223.96005	457.22668	130.60458	312.59802	661.52124	89.366119	181.02283	104.94954	73.17382	166.77354	98.592278	156.00702	164.19063	284.90982	157.74559	110.25964	56.318954	114.80186	327.92114	56.087803	103.77333	173.898185	101.770909	114.59042	220.8372934	862.1007425	88.16952838	240.180145	462.740765	81.0021105
184	1.83	305.89203	940.43561	126.78066	195.42752	954.73242	177.96037	92.936226	991.6803	-14.983176	204.81555	963.65228	-209.00366	306.4118	931.07202	-157.08504	274.15158	1375.0615	-12.070715	190.93942	1425.3773	151.93034	216.92383	1427.9302	-167.17056	306.17441	1301.7499	-7.0170283	280.34821	1361.2704	-79.29319	256.36221	468.31094	31.39706	223.9753	457.22165	130.61859	312.58398	661.51428	89.377144	181.07191	104.93807	73.095078	166.88936	98.599068	156.05481	164.16077	284.88492	157.71985	110.24226	56.286755	114.79465	327.91608	56.075275	103.75697	173.980635	101.768569	114.574944	220.8473534	862.0809001	88.20369139	240.168755	462.766295	81.007825
185	1.84	305.79959	940.45422	126.8039	195.35385	954.70422	178.03909	92.897285	991.65204	-14.936663	204.79156	963.659	-208.95848	306.38211	931.07141	-157.05392	274.08804	1375.0117	-12.04629	190.87575	1425.3411	152.00137	216.90918	1427.8872	-167.13408	306.06403	1301.7239	-7.0141182	280.27029	1361.2378	-79.26857	256.43466	468.26862	31.427126	223.98286	457.21344	130.63618	312.5939	661.51611	89.398972	181.09067	104.92889	73.061409	166.82919	98.564133	155.99997	164.17355	284.86328	157.73654	110.23772	56.2924	114.79324	327.90613	56.091022	103.74935	173.95993	101.7465115	114.5306895	220.7825478	862.0845043	88.21515744	240.20876	462.74103	81.031653
186	1.85	305.77951	940.45044	126.84584	195.31384	954.68414	178.08759	92.853127	991.64264	-14.895635	204.75735	963.65686	-208.92319	306.32892	931.08875	-157.03809	274.00064	1374.9945	-12.025941	190.80864	1425.3229	152.03181	216.84573	1427.8793	-167.10606	305.96295	1301.6685	-7.0114284	280.18286	1361.1729	-79.28215	256.4657	468.30463	31.4585	223.97827	457.21222	130.65259	312.57098	661.51257	89.384399	181.05357	104.94238	73.122459	166.87291	98.470497	156.00732	164.21233	284.87943	157.76204	110.24776	56.293472	114.8126	327.91339	56.088806	103.77045	173.96324	101.7064385	114.5648895	220.761249	862.0698503	88.25712207	240.221985	462.758425	81.055545
187	1.86	305.78925	940.46045	126.88139	195.27927	954.66901	178.16042	92.807434	991.58246	-14.832764	204.7182	963.65082	-208.85715	306.24323	931.10559	-156.99245	273.93411	1375.002	-12.003585	190.73477	1425.3032	152.06494	216.74509	1427.8879	-167.12895	305.88632	1301.6404	-6.9762988	280.10873	1361.1632	-79.233665	256.47333	468.28723	31.473711	223.98911	457.21341	130.6573	312.55548	661.51404	89.41037	181.12036	104.94035	73.071114	166.88783	98.439423	155.98001	164.19896	284.85434	157.74864	110.21436	56.264175	114.82016	327.91016	56.08474	103.75797	174.004095	101.6898865	114.525562	220.7864311	862.0555571	88.32211596	240.23122	462.75032	81.0655055
188	1.87	305.77542	940.47015	126.92416	195.28702	954.65619	178.23621	92.760796	991.55652	-14.753392	204.64883	963.65552	-208.80615	306.17175	931.14777	-156.95287	273.84207	1374.9425	-11.99787	190.65207	1425.3024	152.07831	216.6369	1427.8756	-167.15227	305.79239	1301.604	-6.9829488	280.00461	1361.1356	-79.241592	256.49356	468.25555	31.490545	224.00063	457.21088	130.66791	312.57004	661.51331	89.434273	181.09743	104.89108	73.058296	166.92422	98.470856	156.05656	164.21675	284.80869	157.72836	110.20647	56.260433	114.82954	327.90994	56.098518	103.74845	174.010825	101.680968	114.557428	220.7845343	862.0489205	88.37352446	240.247095	462.733215	81.0792275
189	1.88	305.7637	940.47913	126.94955	195.27132	954.63824	178.33356	92.723618	991.52692	-14.702821	204.55894	963.66248	-208.76407	306.10217	931.16772	-156.91418	273.73544	1374.9501	-11.982321	190.56699	1425.2974	152.0815	216.48244	1427.9047	-167.16287	305.677	1301.5879	-6.9753733	279.89169	1361.0967	-79.246391	256.51996	468.25723	31.516916	224.01649	457.2041	130.66869	312.60391	661.52197	89.46505	181.11417	104.96996	73.110054	166.78162	98.484077	155.98337	164.27104	284.80713	157.74852	110.22221	56.259693	114.81	327.90436	56.110722	103.75313	173.947895	101.7270185	114.546712	220.7836718	862.0467391	88.41609735	240.268225	462.730665	81.092803
190	1.89	305.79163	940.49408	126.96977	195.3058	954.63	178.38791	92.701294	991.50458	-14.652053	204.50122	963.65808	-208.64169	306.02686	931.19226	-156.89488	273.64401	1374.9116	-12.015618	190.48505	1425.3002	152.10791	216.36659	1427.9176	-167.15218	305.58441	1301.5781	-6.9599533	279.79068	1361.0989	-79.215057	256.55383	468.27719	31.522255	224.05891	457.19156	130.67957	312.63193	661.50983	89.476273	181.10982	104.95954	73.097992	166.94771	98.486244	156.01193	164.37123	284.7916	157.74672	110.21423	56.248745	114.85097	327.90097	56.105373	103.73233	174.028765	101.722892	114.554961	220.813921	862.0471416	88.46502035	240.30637	462.734375	81.1009125
191	1.9	305.79398	940.51086	126.98013	195.34695	954.61829	178.43533	92.6698	991.48846	-14.618223	204.40808	963.66278	-208.56358	305.95657	931.21399	-156.88417	273.53046	1374.9033	-12.012706	190.3987	1425.3237	152.09636	216.22881	1427.8958	-167.17912	305.47699	1301.5807	-6.9344926	279.66992	1361.069	-79.23735	256.34329	468.36313	31.496889	224.13284	457.17484	130.66991	312.65259	661.52142	89.509262	181.12686	105.03771	73.281525	166.91785	98.44516	156.02438	164.43687	284.76044	157.74403	110.20818	56.231247	114.81497	327.90359	56.115002	103.73756	174.022355	101.741435	114.6529525	220.8204964	862.0515082	88.49629639	240.238065	462.768985	81.0833995
192	1.91	305.78555	940.51154	126.9916	195.34969	954.60822	178.50018	92.648415	991.4765	-14.554573	204.31458	963.6665	-208.4926	305.88141	931.24469	-156.86105	273.41364	1374.9005	-11.986378	190.30411	1425.3364	152.11165	216.08958	1427.8899	-167.1797	305.37985	1301.5897	-6.9197268	279.54736	1361.0847	-79.212296	256.55084	468.35281	31.534105	224.23204	457.15994	130.69116	312.68042	661.55914	89.504639	181.13757	105.02484	73.279221	166.95041	98.446388	156.04471	164.57324	284.77667	157.79617	110.19805	56.254658	114.82387	327.9032	56.114708	103.74487	174.04399	101.735614	114.6619655	220.8176205	862.0501275	88.52191413	240.39144	462.756375	81.1126325
193	1.92	305.76392	940.52295	126.97475	195.39751	954.61035	178.57512	92.626999	991.45129	-14.474158	204.22723	963.664	-208.43301	305.84271	931.26398	-156.85533	273.28787	1374.9181	-11.949658	190.1922	1425.3525	152.10912	215.97729	1427.8785	-167.14629	305.28073	1301.6049	-6.8916821	279.40463	1361.0629	-79.23053	256.50916	468.49683	31.501356	224.28011	457.12729	130.68042	312.72046	661.59222	89.487823	181.14613	105.07664	73.351151	166.89743	98.431099	156.04497	164.61876	284.75433	157.76289	110.20685	56.244766	114.83524	327.88998	56.122509	103.74973	174.02178	101.7538695	114.6980605	220.8134667	862.0529892	88.51239693	240.394635	462.81206	81.090888
194	1.93	305.76813	940.53479	126.98588	195.41873	954.59515	178.61261	92.606903	991.41553	-14.418674	204.14648	963.65619	-208.38869	305.78751	931.27435	-156.85089	273.1774	1374.8967	-11.985434	190.09691	1425.3633	152.105	215.85193	1427.8536	-167.1131	305.16632	1301.6074	-6.9038177	279.29413	1361.0427	-79.247513	256.46841	468.41885	31.504747	224.36012	457.12411	130.65878	312.79831	661.6106	89.501289	181.14093	105.05521	73.308655	166.87398	98.436134	156.0285	164.72903	284.78522	157.82184	110.20264	56.236332	114.82026	327.89288	56.111572	103.75385	174.007455	101.745672	114.6685775	220.828506	862.0446488	88.5411656	240.414265	462.77148	81.0817635
